<?xml version="1.0" encoding="UTF-8" standalone="no"?>
<!-- Creator: CorelDRAW 2021.5 -->

<svg
   xml:space="preserve"
   width="8.2685585in"
   height="8.2788744in"
   version="1.1"
   style="clip-rule:evenodd;fill-rule:evenodd;image-rendering:optimizeQuality;shape-rendering:geometricPrecision;text-rendering:geometricPrecision"
   viewBox="0 0 6908.7004 4896.7063"
   id="svg13"
   sodipodi:docname="logo.svg"
   inkscape:version="1.4 (e7c3feb1, 2024-10-09)"
   xmlns:inkscape="http://www.inkscape.org/namespaces/inkscape"
   xmlns:sodipodi="http://sodipodi.sourceforge.net/DTD/sodipodi-0.dtd"
   xmlns="http://www.w3.org/2000/svg"
   xmlns:svg="http://www.w3.org/2000/svg"><sodipodi:namedview
   id="namedview13"
   pagecolor="#ffffff"
   bordercolor="#000000"
   borderopacity="0.25"
   inkscape:showpageshadow="2"
   inkscape:pageopacity="0.0"
   inkscape:pagecheckerboard="0"
   inkscape:deskcolor="#d1d1d1"
   inkscape:document-units="in"
   inkscape:zoom="1.3775031"
   inkscape:cx="414.88111"
   inkscape:cy="619.59935"
   inkscape:window-width="1920"
   inkscape:window-height="1172"
   inkscape:window-x="0"
   inkscape:window-y="43"
   inkscape:window-maximized="1"
   inkscape:current-layer="Слой_x0020_1" />
 <defs
   id="defs1">
  <style
   type="text/css"
   id="style1">
   <![CDATA[
    .fil4 {fill:none}
    .fil0 {fill:#8A2F2E}
    .fil2 {fill:#E85D2A}
    .fil3 {fill:#F6622F}
    .fil1 {fill:#FFECD2}
   ]]>
  </style>
 </defs>
 <g
   id="Слой_x0020_1"
   transform="translate(-727.87988,-3312.8964)"
   inkscape:label="Слой 1"
   inkscape:groupmode="layer">
  <metadata
   id="CorelCorpID_0Corel-Layer" />
  <ellipse
   class="fil0"
   cx="4182.23"
   cy="5761.3545"
   rx="3454.3501"
   ry="3458.6599"
   id="ellipse1" />
  <path
   class="fil1"
   d="m 1942.19,7756.37 4416.63,3.89 35.54,-42.76 -349.13,-8.34 c -108.71,0.33 -98.07,-26.78 -154.57,-83 C 5766.11,7502.22 5662.7,7382.4 5559.31,7228.67 5434.44,7043 5320.92,6817.32 5223.88,6594.86 c -309.38,-13.06 -341.26,13.1 -687.81,-32.25 -55.81,-7.3 -162.5,-35.59 -211.54,-31.56 -185.85,459.82 -528.89,864.31 -886.89,1163.36 l -319.89,4.33 -333.38,6.52 -687.59,0.71 -137.06,-0.83 -17.52,51.24 z M 4421.08,6599.36 c 42.54,76.15 45.51,59.61 148.99,75.94 69.48,10.97 140.1,18.09 205.21,23.87 85.34,7.58 366.99,14.74 423.51,-19.28 -14.21,-44.99 -21.24,-34.13 -80.06,-31.82 l -321.09,-2.47 c -128.91,-10.85 -252.36,-31.71 -376.57,-46.25 z m -844.94,1096.8 c 73.2,-0.02 93.1,-38.6 136.39,-77.65 189.07,-170.54 646.51,-724.83 603.3,-953.69 -219.94,392.8 -253.48,471.56 -570.16,809.7 -71.02,75.83 -162.67,148.33 -226.84,221.06 l 57.31,0.57 z m 458.39,0.72 c 49.69,-3.86 19.2,12.46 36.44,-32.57 l 33.19,-133.47 c 20.43,-96.85 34.92,-150.83 76.14,-235.62 129.64,-266.71 149.54,-94.76 140.5,-402.76 -6.94,5.06 -111.64,198.07 -129.3,225.19 -49.9,76.61 -94.93,141.49 -145.62,208.79 -151.2,200.72 -257.76,279.32 -330.44,370.63 l 319.1,-0.17 z m 468.82,-51.44 c 67.55,-123.9 -76.18,-455.02 -166.52,-453.37 -74.24,1.35 -223.98,337.22 -152,453.75 z m -130,-773.75 c -6.62,75.02 -17.8,195.91 20.75,240.42 169.76,196.04 154.65,325.86 225,583.83 l 389.16,9.24 c -3,-5.24 -419.37,-378.09 -634.91,-833.49 z m -1.94,-254.09 c -3.69,106.08 -15.72,126.96 30.93,205.56 29.71,50.05 53.56,104.02 83.25,156.22 95.07,167.14 281.78,402.64 414.81,543.31 114.61,121.19 154.25,178.46 290.83,178.6 -64.72,-93.34 -445.36,-307.98 -819.82,-1083.7 z m 465.1,135.63 c -127.69,-3.67 -230.53,-28.78 -352.84,-39.6 53.07,175.45 369.81,575.63 496.97,707.82 30.98,32.2 290.01,273.53 319.99,283.25 29.93,9.7 513.89,5.78 585.09,4.72 -21.1,-34.74 -69.48,-72.92 -98.96,-104.39 -112.3,-119.9 -177.31,-203.24 -273.02,-341.04 -141.57,-203.84 -189.03,-335.74 -292.93,-528.68 -129.94,1.75 -241.12,22.04 -384.3,17.93 z"
   id="path1" />
  <path
   class="fil2"
   d="m 3001.54,8471.77 23.59,-10.06 c 149.1,-44.94 444.32,-19.94 576.48,14.37 458.54,119.07 458.32,262.5 1124.06,91.58 91.52,-23.5 174.56,-54.46 258.91,-74.33 115.75,-27.28 186.39,-25.68 320.76,-22.2 -11.83,10.94 -5.48,7.07 -24.85,17.69 -87.89,48.19 -401.55,132 -491.67,153.28 -185.72,43.83 -757.42,89.44 -963.37,48.02 -47.38,-9.53 -201.19,-87.42 -397.56,-108.74 -152.38,-16.55 -111.21,22.34 -303.31,-54.94 -24.16,-9.72 -39.28,-16.01 -59.48,-23.86 l -63.56,-30.8 z m -270.02,-125.02 152.71,-57.24 c 12.75,-3.33 22.13,-5.78 40.89,-10.26 13.85,-3.31 25.47,-6 43.74,-9.54 134.75,-26.09 385.02,-27.38 505.42,-10.57 350.16,48.89 463.72,167.67 674.3,179.36 598.77,33.24 765.47,-285.07 1256.78,-151.63 l 153.55,76.64 c -47.79,7.49 -93.19,45.89 -140.46,66.06 -86.09,36.74 -177.36,-68.97 -555.02,49.77 -244.63,76.91 -435.14,137.29 -735.56,108.5 -275.65,-26.41 -481.97,-263 -1078.99,-173.15 -97.04,14.6 -144.66,49.7 -299.66,-54.21 -1.74,-1.17 -4.51,-3.29 -6.05,-4.39 l -11.67,-9.35 z M 2523.75,8232.1 c 25.54,-48.61 80.6,-61.06 168.68,-92.98 176.29,-63.91 245.48,-68.59 415.86,-84.18 147.87,-13.54 354.39,-2.93 499.72,29.94 l 73.8,18.8 c 110.91,27.26 176.09,66.23 280.1,96.37 465.45,134.88 655.05,-38.25 1027.13,-129.33 161.35,-39.49 281.29,-37.32 442.94,1.8 70.24,17 126.83,34.78 196.13,53.7 l 160.63,58.64 c 30.16,21.76 4.09,-8.58 26.41,26.4 -22.81,2.5 -101.5,57.96 -131.74,75.85 -87.48,51.74 -62.09,42.2 -142.96,3.7 -297.64,-141.73 -572.16,-69.58 -859.69,26.43 -338.35,112.98 -516.36,118.73 -842.6,-13.13 -219.4,-88.68 -421.64,-109.42 -710.63,-100.02 -60.35,1.96 -109.82,13.5 -175.85,20.86 -49.13,5.48 -115.04,28.26 -160.17,46.78 -51.54,21.16 -88.55,57.5 -141.85,33.71 -42.01,-18.74 -87.38,-62.14 -125.91,-73.35 z m -198.22,-152.61 c 130.78,-157.39 667.12,-223 896.06,-223.23 135.9,-0.13 223.8,2.47 349.95,25.57 3.14,0.57 5.71,1.07 8.81,1.65 3.6,0.68 13.67,2.7 17.19,3.39 41.15,8.02 80.13,16.95 116.93,28.07 340.83,103 492.75,204.85 932.8,74.69 574.38,-169.9 777.09,-160.11 1347,9.59 16.84,5.02 9.85,0.31 24.11,8.8 31.01,18.44 6.45,-4.9 27.57,26.14 -32.45,11.13 -112.15,88.84 -162.15,120.28 -40.48,25.45 -55.71,3.25 -98.35,-16.07 -151.57,-68.69 -409.89,-143.15 -595.01,-142.89 -322.3,0.44 -543.88,215.06 -979.47,207.32 -189.58,-3.37 -292.3,-73.75 -458.12,-125.83 -182.02,-57.17 -295.99,-71.15 -520.88,-70.68 -189.59,0.4 -365.17,20.09 -516.69,74.87 -70.91,25.63 -144.69,48.28 -211.99,80.23 -51.19,24.3 -44.01,25.81 -94.52,-12.5 -28.8,-21.85 -63.22,-47.7 -83.24,-69.38 z m -318.75,-312.75 c -40.2,-5.73 -66.29,-78.48 -127.81,-150.39 -529.36,-618.68 -747.4,-1592.74 -605.84,-2391.26 7.35,-41.44 8.67,-80.54 24.96,-121.63 l 11.06,-40.47 1101.36,-2.06 c 38.71,-16.15 76.32,-156.01 63.23,-201.89 -72.91,117.07 -298.06,269.37 -285.6,68.37 89.51,-50.63 126.14,-68.57 188.55,-144.37 29.84,-36.24 110.07,-163.64 87.78,-236.46 -34.15,88.63 -186.29,218.94 -284.83,133.24 -1.5,-106.12 112.52,-103.21 194.64,-211.78 50.63,-66.94 78.52,-163.5 115.35,-238.23 125.69,6.63 38.5,218.62 359,385.1 13.44,217.2 -230.47,23.6 -276.6,-67.94 -27.27,102.09 100.89,252.97 177.39,312.84 35.72,27.95 74.6,43 109.13,67.89 7.39,164.31 -167,62.28 -226.17,7.7 -20.1,-18.55 -45.26,-55.81 -64.94,-66.72 5.76,51.31 12.59,108.66 41.1,152.89 l 27.44,38.95 1438.93,-2.65 -563.15,-574.7 -206.83,-188.2 -144.07,155.42 189.38,226.04 150.75,195.31 -40.17,27.49 -223.44,-244.91 -166.78,-177.14 c -170.26,-176.7 -335.84,-362.9 -502.28,-543.7 l -499.53,500.13 -249.16,250.5 c -74.83,13.96 -282.48,-88.49 -338.52,-150.66 15.02,-37.27 2.09,-54.83 43.64,-49.96 34.8,9.3 152.09,91.5 227.87,130.48 136.63,-91.44 622.7,-645.91 771.93,-745.5 81.69,-54.52 54.6,-92.42 105.91,-184.22 58.9,-105.4 116.96,-186.11 196.57,-253.61 65.98,-55.96 192.18,-134.16 304.18,-155.25 325.98,-61.4 496.81,72.26 673.78,203.41 81.86,-71.63 135.3,-130.44 236.28,-198.88 302.93,-205.32 665.63,-309.19 1059.79,-253.91 243.61,34.17 450.93,116.11 642.77,256.15 139.73,102 350.74,342.61 387.16,515.19 -67.26,-43.07 -239.46,-295.83 -388.57,-408.7 C 5034.85,2853 4032.04,3081.33 3629.27,3877.9 c -39.89,78.9 -86.06,202.95 -106.2,288.93 -47.93,204.59 -45.46,155.89 73.08,273.7 132.96,132.15 262.54,264.58 396.14,396.32 l 221.87,220.78 346.78,-0.64 1.34,-290.04 c -77.66,42.08 -397.64,256.84 -393.58,46.7 56.91,-41.46 162.72,-62.67 236.63,-107.34 l 104.83,-72.11 c 53.86,-40.87 52.13,-31.61 52.25,-118.64 -87.28,35.3 -235.24,246 -395.62,188.53 -20.56,-138 209.53,-187.05 347.34,-336.17 52.07,-56.34 49.07,-53.41 47.99,-153.8 -59.07,27.67 -93.16,133.85 -278.26,185.91 -67.35,18.94 -68.52,13.46 -115.49,-20.42 l -1.31,-57.23 c 82.03,-59.81 151.91,-61.93 252.13,-153.84 61.78,-56.66 147.58,-135.53 144.75,-257.57 -67.26,59.27 -95.74,94.77 -183.35,146.91 -33.39,19.87 -91.3,45.72 -128.98,19.36 -31.83,-22.27 -29.8,-77.93 3.72,-103.11 147.72,-111.1 316.86,-162.25 307.87,-392.33 l -139.63,133.26 c -65.98,48.7 -159.6,101.6 -151.89,-48.78 70.92,-48.51 124.28,-92.04 184.35,-158.84 111.78,-124.31 130.73,-286.74 261.28,-93.97 49.16,72.59 115.54,139.66 182.43,191.96 55.02,43.01 82.91,35.52 73.16,127.41 -126.35,71.53 -190.06,-95.04 -280.65,-141.4 -1.28,171.56 158.09,309.07 279.74,368.69 142.44,69.81 -3.32,196.24 -196.7,30.79 -18.97,-16.23 -62.7,-70.11 -81.82,-79.78 -3.43,120.61 70.58,196.56 154.28,267.12 183.99,155.13 249.35,76.25 240.74,202.05 -75.8,51.65 -146.47,16.46 -225.54,-28.58 -74.28,-42.3 -112.94,-73.81 -169.33,-137.41 -2.92,94.71 3.58,89.8 47.71,143.84 97.63,119.55 236.48,182.28 367.33,257.29 8.29,152.67 -134.33,82.3 -212.64,36.26 -69.36,-40.77 -146.44,-90.26 -201.62,-145.46 l -0.76,79.59 c 78.99,67.93 167.72,138.35 271.64,171.99 37.52,12.14 92.52,14.55 113.61,45.48 67.11,98.41 -85.87,97.2 -179.25,64.94 -127.65,-44.09 -134.28,-67.06 -205.19,-101.57 l 0.2,290.07 1157.78,-2.13 2.74,-361.66 c -63.52,64.55 -170.48,130.22 -270.08,135.6 -67.41,3.64 -66.22,-27.76 -64.48,-90.47 76.9,-36.87 149.23,-59.57 216.83,-115.54 55.62,-46.05 117,-128.79 119.64,-222.93 -64.63,48.84 -295.12,245.98 -293.49,37.3 68.52,-48.74 131.75,-71.16 191.74,-140.44 50.04,-57.8 107.24,-130.69 110.74,-230.7 -16.3,9.41 -54.04,46.56 -70.67,62.2 -176.24,165.69 -258.44,42.09 -169.37,-24.15 l 143.02,-127.92 c 44.68,-51.72 71.23,-121.11 107.29,-172.97 77.35,-5.57 74.75,6.96 103.12,57.18 94.55,167.37 248.58,193.14 239.65,333.15 -106.16,36.98 -190.45,-59.78 -243.94,-124.73 -2.13,111.33 86.24,233.79 171.55,290.84 46.09,30.81 165.34,50.53 125.18,127.86 -54.63,105.2 -284.11,-81.97 -297.35,-87.9 9.61,216.9 214.19,241.35 344.09,338.72 3.56,175.52 -259.24,14.59 -332.76,-34.17 l -0.38,350.5 1059.44,-2.03 c -2.65,18.58 55.78,334.35 62.33,398.05 42.58,414.43 -0.87,862.33 -129.63,1246.28 -117.85,351.41 -278.5,636.09 -500.13,905.63 -3.59,6.62 -179.71,200.74 -189.04,211.63 -52.72,61.5 -180.89,176.51 -201.93,179.63 -60.9,-8.61 -146.35,-51.69 -211.4,-69.75 -300.72,-83.51 -382.82,-108.72 -747.41,-94.61 -293.9,11.38 -453.56,182.8 -968.72,166.12 -69.5,-2.25 -66.23,-2.68 -116.03,-20.84 -37.49,-13.67 -74.76,-16.37 -113.7,-32.87 -254.48,-107.8 -430.73,-124.26 -728.56,-122.65 -267.44,1.45 -484.82,30.9 -721.15,120.41 -242.72,91.94 -160.15,148.13 -344.56,-37.48 -45.45,-45.74 -86.26,-82.26 -128.26,-135.13 z M 5271.61,4921.81 c -42.97,-41.89 26.23,-120.01 67.06,-77.43 38.88,25.79 -1.68,134.73 -67.06,77.43 z m 1265.92,-315.16 c -44.95,60.78 -120.31,-5.67 -81.93,-65.16 37.5,-58.12 122.18,10.73 81.93,65.16 z M 5342.15,4137.24 c 58.75,-0.2 42.67,100.3 -5.17,102.37 -46.04,2 -77.19,-101.42 5.17,-102.37 z m -74.26,-450.46 c 90.94,-22.44 74.44,93.67 27.8,107.58 -40.91,12.2 -93.58,-85.56 -27.8,-107.58 z M 3822.67,3123.43 c 59.96,-37.91 78.99,57.38 38.25,82.09 -54.85,33.27 -85.81,-52.02 -38.25,-82.09 z M 7208.5,4618.91 C 6573.39,3019.28 4990.42,2238.77 3335.81,2629.03 2125.92,2888 1031.17,4095.14 941.81,5502.44 884.05,7293.35 2038.36,8686.16 3752.23,8970.19 4945.49,9125.91 6063.77,8588 6797.36,7684.08 7445.8,6820.84 7607.07,5622.77 7208.5,4618.91 Z"
   id="path2" />
  <path
   class="fil3"
   d="m 2642.18,3885.37 c 102.88,141.22 328.17,357.54 455.84,496.09 l 208.36,-176 111.45,72.24 c 25.43,-57.66 36.39,-204.87 81.28,-303.7 45.62,-106.29 49.7,-138 133.36,-262.03 26.61,-39.92 96.09,-126.83 109.87,-159.98 -58.36,-61.74 -195.78,-138.05 -285.03,-169.04 -351.79,-122.12 -721.7,156.48 -815.13,502.42 z"
   id="path3" />
  <path
   class="fil0"
   d="m 2008.22,7774.72 c 42,52.88 82.81,89.39 128.26,135.13 184.41,185.61 101.84,129.42 344.56,37.48 236.33,-89.52 453.71,-118.96 721.15,-120.41 297.83,-1.61 474.08,14.85 728.56,122.65 38.95,16.5 76.21,19.2 113.7,32.87 49.8,18.17 46.53,18.59 116.03,20.84 515.16,16.67 674.82,-154.74 968.72,-166.12 364.59,-14.11 446.69,11.1 747.41,94.61 65.05,18.06 150.5,61.14 211.4,69.75 24.77,-3.67 209.38,-178.89 233.28,-222.89 z m 318.75,312.75 c 20.02,21.68 54.44,47.53 83.24,69.38 50.51,38.31 43.33,36.81 94.52,12.5 67.3,-31.96 141.08,-54.6 211.99,-80.23 151.52,-54.78 327.1,-74.46 516.69,-74.87 224.89,-0.48 338.86,13.51 520.88,70.68 165.82,52.08 268.54,122.46 458.12,125.83 435.59,7.74 657.17,-206.87 979.47,-207.32 185.12,-0.26 443.43,74.2 595.01,142.89 42.63,19.32 57.87,41.52 98.35,16.07 50,-31.43 129.7,-109.14 162.15,-120.28 -21.12,-31.04 3.44,-7.7 -27.57,-26.14 -14.26,-8.48 -7.27,-3.78 -24.11,-8.8 -569.91,-169.7 -772.62,-179.49 -1347,-9.59 -440.04,130.17 -591.96,28.32 -932.8,-74.69 -36.79,-11.12 -75.78,-20.05 -116.93,-28.07 -3.52,-0.69 -13.59,-2.71 -17.19,-3.39 -3.1,-0.59 -5.67,-1.08 -8.81,-1.65 -126.15,-23.1 -214.06,-25.71 -349.95,-25.57 -228.94,0.23 -765.29,65.84 -896.06,223.23 z m 198.22,152.61 c 38.53,11.21 83.89,54.61 125.91,73.35 53.3,23.78 90.31,-12.56 141.85,-33.71 45.14,-18.53 111.04,-41.31 160.17,-46.78 66.04,-7.36 115.5,-18.89 175.85,-20.86 289,-9.4 491.23,11.34 710.63,100.02 326.24,131.86 504.25,126.1 842.6,13.13 287.54,-96.01 562.05,-168.16 859.69,-26.43 80.87,38.51 55.48,48.05 142.96,-3.7 30.24,-17.89 108.93,-73.35 131.74,-75.85 -22.32,-34.98 3.74,-4.65 -26.41,-26.4 l -160.63,-58.64 c -69.31,-18.92 -125.89,-36.7 -196.13,-53.7 -161.66,-39.13 -281.6,-41.3 -442.94,-1.8 -372.08,91.08 -561.68,264.2 -1027.13,129.33 -104.01,-30.14 -169.2,-69.11 -280.1,-96.37 l -73.8,-18.8 c -145.32,-32.87 -351.84,-43.48 -499.72,-29.94 -170.39,15.59 -239.57,20.27 -415.86,84.18 -88.08,31.93 -143.14,44.38 -168.68,92.98 z m 219.44,124.01 c 1.54,1.09 4.31,3.22 6.05,4.39 155,103.91 202.62,68.81 299.66,54.21 597.02,-89.85 803.35,146.74 1078.99,173.15 300.42,28.78 490.93,-31.59 735.56,-108.5 377.65,-118.74 468.93,-13.04 555.02,-49.77 47.27,-20.17 92.67,-58.57 140.46,-66.06 l -153.55,-76.64 c -491.31,-133.44 -658.01,184.87 -1256.78,151.63 -210.59,-11.69 -324.14,-130.48 -674.3,-179.36 -120.4,-16.81 -370.67,-15.53 -505.42,10.57 -18.27,3.54 -29.89,6.23 -43.74,9.54 -18.76,4.48 -28.15,6.93 -40.89,10.26 l -152.71,57.24 11.67,9.35 z m 2537.31,132.7 c 19.38,-10.62 13.02,-6.75 24.85,-17.69 -134.37,-3.47 -205.01,-5.07 -320.76,22.2 -84.35,19.87 -167.39,50.84 -258.91,74.33 -665.74,170.92 -665.53,27.49 -1124.06,-91.58 -132.16,-34.32 -427.39,-59.31 -576.48,-14.37 l -23.59,10.06 63.56,30.8 c 20.2,7.85 35.32,14.14 59.48,23.86 192.1,77.29 150.93,38.4 303.31,54.94 196.37,21.32 350.18,99.21 397.56,108.74 205.95,41.42 777.65,-4.19 963.37,-48.02 90.12,-21.27 403.79,-105.08 491.67,-153.28 z"
   id="path4" />
  <path
   class="fil1"
   d="m 3690.35,5466.26 21.92,-100.87 -566.97,0.07 -15.26,103.95 219.66,-0.33 -122.53,610.82 115.86,0.28 125.05,-610.31 z m 314.45,181.85 c 12.04,-44.29 20.19,-67.77 30.4,-105.13 -79.54,-6.75 -159.8,6.85 -176.71,62.83 -62.56,-45.64 38.91,-62.25 -128.11,-59.68 l -114.5,534.71 114.23,0.28 c 2.89,-57.09 43.49,-229.93 60.69,-295.67 27.96,-106.92 86.81,-142.28 214,-137.35 z m 348.35,190.71 c -36.38,292.28 -389.89,126.85 -183.08,14.97 44.27,-23.95 125.91,-21.11 183.08,-14.97 z m -223.74,-160.19 c 76.91,-19.63 302.65,-118.67 244.93,86.63 -158.79,11.43 -368.84,-20.23 -383.78,162.09 -15.69,178.94 218.12,191.63 315.96,96.01 1.46,2.01 2.17,5.5 2.69,6.96 l 7.48,21.75 10.89,30.49 89.49,0.22 c 23.82,-75.55 99.45,-395.28 69.88,-460.65 -57.36,-126.78 -295.93,-82.29 -401.8,-21.91 25.35,43.9 22.37,40.48 44.26,78.4 z m 657.41,405.06 330.8,-534.63 -113.09,1.87 -229.2,365.48 c -26.74,-30.06 -81.76,-314.1 -93.79,-367.6 l -107.09,2.88 106.98,531.74 z m 433.8,-322.39 c 12.51,-68.67 84.07,-124.98 139.57,-124.04 42.65,-0.04 106.29,22.02 128.56,124.54 z m 347.55,82.42 c 139.13,-307.46 -272.39,-420.92 -441.04,-148.4 -78.08,126.17 -70.18,272.53 25.26,345.58 137.1,90.63 289.26,19.31 369.43,-8.83 l -38.06,-73.8 c -86.42,25.25 -299.04,101.56 -282.93,-114.94 z m 184.38,242.29 160.49,-742.43 -114.11,-1.17 -164.28,743.33 117.9,0.26 z m 1170.3,-744.61 c -55.01,-70.26 -171.3,25.78 -129.52,88.3 28.8,40.16 199.61,14.83 129.52,-88.3 z m -787.89,478.08 222.06,-338.14 42.37,338.92 -61.35,-0.02 -203.07,-0.77 z m -169.28,267.07 101.45,-169.96 358.5,9.74 25.81,161.4 112.34,0.28 -57.59,-379.36 -48.7,-367.47 -131.69,0.75 -478.41,744.33 z m 676.61,1.31 121.83,0.63 121.38,-536.33 -120.79,0.2 -122.43,535.49 z"
   id="path5" />
  <path
   class="fil4"
   d="m 6134.98,5819.49 203.07,0.77 61.35,0.02 -42.37,-338.92 c -72.28,113.9 -155.61,232.01 -222.06,338.14 z"
   id="path6" />
  <path
   class="fil4"
   d="m 4353.15,5838.83 c -57.18,-6.14 -138.81,-8.98 -183.08,14.97 -206.81,111.89 146.7,277.31 183.08,-14.97 z"
   id="path7" />
  <path
   class="fil4"
   d="m 5220.63,5761.31 268.13,0.5 c -18.3,-88.54 -14.52,-138.16 -128.56,-124.54 -68.87,8.23 -127.06,55.36 -139.57,124.04 z"
   id="path8" />
  <path
   class="fil4"
   d="m 5273.05,4929.8 c 97,36.9 94.72,-48.58 67.06,-77.43 -40.82,-42.58 -96.77,1.88 -67.06,77.43 z"
   id="path9" />
  <path
   class="fil2"
   d="m 6108.78,7573.38 c 8.52,5.62 -15.83,11.89 72.73,10.91 l 230.02,-10.91 c -24.79,-13.76 -32.83,-9.89 -73.21,-9.58 -62.05,0.47 -192.48,-7.74 -229.54,9.58 z"
   id="path10" />
  <path
   class="fil1"
   d="m 2427.22,6083.27 47.5,106.38 c 18.14,35.17 32.02,64.31 48.41,97.16 50.68,101.58 61.3,149.68 141.43,160.98 -10.46,-81.56 -43.24,-162.75 -67.03,-234.48 -42.48,-128.1 -13.91,-136.17 -170.31,-130.05 z m -79.36,12.83 c -114.93,3.16 -179.77,81.04 -183.37,205.13 236.27,-18.94 192.01,65.78 289.08,211.98 51.64,77.78 222.56,166.94 354.09,95.23 0.66,-24.87 1.05,-32.81 -3.93,-58.44 l -18.31,-47.63 c -185.93,9.59 -215.14,-7.14 -284.82,-140.03 -44.17,-84.25 -90.62,-215.85 -152.74,-266.23 z m -181.11,530.01 c 38.21,-5.31 148.54,-85.2 108.13,-216.38 -27.27,-9.37 -47,-3.45 -81.13,10.66 -56.76,23.47 -41.2,147.95 -27,205.72 z m 23.83,108.41 3.45,-41.2 -31.17,1.08 -4.95,41.27 z m 264.11,-107.55 c -135.72,-200.12 -93.47,-309.27 -277.37,-280.69 l 73.65,18.3 c 115.76,23.2 98.83,140.02 17.33,248.33 -40.25,53.49 -28.85,62.24 -30.28,135.48 l 309,-4.58 c -10.02,-90.93 -24.07,-16.19 -92.33,-116.84 z m -134.88,-601.96 c -7.22,-102.11 -31.37,-169.71 54.06,-213.5 54.2,-27.78 153.83,-31.12 162.94,95.15 -49.79,-7.61 -126.43,-16.47 -169.15,3.74 -38.52,67.73 17.8,115.48 94.8,115.47 56.96,-0.01 103.17,7.8 139.22,-11.29 7.95,-97 -21.33,-5.16 -15.2,-84 3.18,-40.99 6.41,-69.95 -10.31,-102.49 -24.58,-47.81 -73.63,-80.72 -144.93,-80.67 -174.85,0.11 -175.7,126.36 -158.06,277.58 -181.24,73.88 -206.32,-83.84 -214.56,489.35 -5.88,408.74 -55.39,346.9 351.76,345.45 80.12,-0.32 129.38,8.51 194.02,-18.22 l 2.47,-85.76 c -57.37,57.25 -36.11,47.98 -144.27,48.05 -407.63,0.26 -356.59,25.41 -353.02,-216.28 1.43,-96.91 -1.43,-283.61 13.27,-372.45 18.56,-112.12 107.2,-126.89 196.97,-190.13 z m 116.8,1101.03 c 53.87,-2.72 53.8,-6.52 88.36,-21.56 39.63,89.46 -85.43,45.54 -105.64,109.27 -7.54,23.79 0.22,-3.28 -4.5,17.07 l -17.06,120.27 c 265.74,5.47 210.47,-203.64 137.2,-428.65 l -51.67,0.28 c -22.75,28.76 -40.92,156.31 -46.69,203.32 z m -20.11,-200.99 c -244.14,-27.85 -243.11,-9.06 -250.54,162.61 38.44,23.77 44.78,13.28 86.61,21.37 59.4,11.49 49.98,0 39.95,51.56 -19.48,11.1 -98.81,-14.25 -142.87,-11.54 -9.09,58.76 -38.41,161.17 -32.61,219.91 52.58,20.99 136.9,19.13 196.04,9.67 l 103.42,-453.57 z m -312.72,497.89 c -13.19,35.93 -33.91,129.96 -37.83,165.75 -16.7,152.48 171.47,134.58 201.85,11.7 11.35,-45.91 26.46,-121.09 25.49,-163.23 l -189.52,-14.22 z m 468.05,-47.24 c -35.78,7.77 -61.67,18.23 -96.41,25.08 -17.01,3.35 -29.22,3.86 -44.85,6.5 -64.47,10.89 -48.24,5.17 -69.91,142.85 -15.18,96.42 -46.44,170.41 148.31,144.35 l 62.85,-318.78 z m 405.06,-965.26 c 4.76,-62.49 18.93,-119.71 32.27,-182.83 6.09,-28.8 11.72,-59.63 18.52,-85.57 26.17,-99.73 6.35,-65.67 -2.65,-79.41 -65.51,-0.43 -38.34,13.16 -73.69,161.15 -57.19,239.42 5.09,155.27 -118.32,228.89 11.33,75.98 5.59,106.87 35.05,126.67 1.22,0.82 5.59,6.11 6.52,4.15 0.95,-1.98 4.46,2.76 6.7,4.11 -7.46,73.31 -27.48,164.39 -43.54,242.48 -38.05,185 -91.03,404.88 -119.34,587.98 -13.8,89.26 -1.28,46 -53.73,76.19 l -32.04,216.65 127.7,-0.63 39.27,-198.07 -43.64,-18.2 c 34.37,-223.99 119.28,-595.89 171.75,-839.62 16.48,-76.56 2.58,-69.06 60.15,-103.76 42.72,-25.76 37.3,-65.63 36.04,-132.98 l -47.03,-7.17 z"
   id="path11" />
  <path
   class="fil1"
   d="m 4175.91,2867.6471 c 1621.33,0 2935.68,1317.65 2935.68,2943.08 0,1625.41 -1314.35,2943.06 -2935.68,2943.06 -1621.33,0 -2935.68,-1317.65 -2935.68,-2943.06 0,-1625.43 1314.35,-2943.08 2935.68,-2943.08 z m 0,-59.11 c 1653.89,0 2994.63,1344.12 2994.63,3002.17 0,1658.07 -1340.74,3002.18 -2994.63,3002.18 -1653.89,0 -2994.63,-1344.11 -2994.63,-3002.18 0,-1658.05 1340.74,-3002.17 2994.63,-3002.17 z"
   id="path12" />
  <path
   class="fil2"
   d="m 3728.3,7211.82 h -619.39 v 26.78 H 3728.3 Z M 3843.96,7051 h -702.62 v 26.78 h 702.62 z m 118.68,-166.81 h -791.85 v 26.78 h 791.85 z m 91.57,-160.03 H 3200.2 v 26.78 h 854.01 z m 2054.57,833.07 h 302.69 v 26.78 H 6108.78 Z M 5925.39,7397.9 h 623.1 v 26.78 h -623.1 z m -117.74,-167.67 h 823.53 v 26.78 h -823.53 z m -120.22,-164.87 h 943.75 v 26.78 H 5687.43 Z M 5581.55,6895.6 h 1049.63 v 26.78 H 5581.55 Z m -74.46,-165.02 h 1124.09 v 26.78 H 5507.09 Z m -94.63,-171.77 h 1218.72 v 26.78 H 5412.46 Z M 6636.37,6398.56 H 3232.02 v 26.78 h 3404.35 z m -2501.76,175.6 h -910.83 v 26.78 h 910.83 z m -580.27,812.06 H 3090.28 V 7413 h 464.06 z m -187.79,168.43 h -282.46 v 26.78 h 282.46 z"
   id="path13" />
 </g>
</svg>
