<svg width="57" height="57" viewBox="0 0 57 57" fill="none" xmlns="http://www.w3.org/2000/svg">
<path d="M28.5 53.4375C42.2726 53.4375 53.4375 42.2726 53.4375 28.5C53.4375 14.7274 42.2726 3.5625 28.5 3.5625C14.7274 3.5625 3.5625 14.7274 3.5625 28.5C3.5625 42.2726 14.7274 53.4375 28.5 53.4375Z" fill="url(#paint0_linear_41_299)"/>
<path d="M40.9449 18.1844C41.1668 16.7497 39.8027 15.6172 38.527 16.1773L13.1186 27.3329C12.2037 27.7346 12.2707 29.1204 13.2195 29.4225L18.4593 31.0912C19.4594 31.4097 20.5423 31.2449 21.4156 30.6416L33.2292 22.4799C33.5855 22.2337 33.9738 22.7403 33.6694 23.054L25.1657 31.8213C24.3408 32.6719 24.5045 34.1131 25.4968 34.7353L35.0176 40.7057C36.0854 41.3752 37.4591 40.7026 37.6588 39.4121L40.9449 18.1844Z" fill="white"/>
<defs>
<linearGradient id="paint0_linear_41_299" x1="28.5" y1="3.5625" x2="28.5" y2="53.4375" gradientUnits="userSpaceOnUse">
<stop stop-color="#37BBFE"/>
<stop offset="1" stop-color="#007DBB"/>
</linearGradient>
</defs>
</svg>
